<mxfile host="app.diagrams.net" modified="2023-04-28T09:19:14.259Z" agent="Mozilla/5.0 (Windows NT 10.0; Win64; x64; rv:109.0) Gecko/20100101 Firefox/112.0" etag="ZhzOQyPkunGcdMrP2W-a" version="21.2.3" type="device">
  <diagram name="Sayfa -1" id="U_zZZ1vFyXgAsV2WCDRt">
    <mxGraphModel dx="612" dy="561" grid="1" gridSize="10" guides="1" tooltips="1" connect="1" arrows="1" fold="1" page="1" pageScale="1" pageWidth="827" pageHeight="1169" math="0" shadow="0">
      <root>
        <mxCell id="0" />
        <mxCell id="1" parent="0" />
        <mxCell id="lo464l1qegAzPpto4pqf-1" value="" style="shape=ellipse;container=1;horizontal=1;horizontalStack=0;resizeParent=1;resizeParentMax=0;resizeLast=0;html=1;dashed=1;collapsible=0;" vertex="1" parent="1">
          <mxGeometry x="280" y="90" width="510" height="360" as="geometry" />
        </mxCell>
        <mxCell id="lo464l1qegAzPpto4pqf-2" value="&lt;b&gt;Articles(Handbook)&lt;/b&gt;" style="html=1;strokeColor=none;fillColor=none;align=center;verticalAlign=middle;spacingLeft=4;spacingRight=4;rotatable=0;points=[[0,0.5],[1,0.5]];resizeWidth=1;whiteSpace=wrap;" vertex="1" parent="lo464l1qegAzPpto4pqf-1">
          <mxGeometry y="12.521739130434783" width="510" height="46.95652173913044" as="geometry" />
        </mxCell>
        <mxCell id="lo464l1qegAzPpto4pqf-3" value="" style="line;strokeWidth=1;fillColor=none;rotatable=0;labelPosition=right;points=[];portConstraint=eastwest;dashed=1;resizeWidth=1;" vertex="1" parent="lo464l1qegAzPpto4pqf-1">
          <mxGeometry x="73.66666666666667" y="46.95652173913044" width="362.6666666666667" height="12.521739130434783" as="geometry" />
        </mxCell>
        <mxCell id="lo464l1qegAzPpto4pqf-4" value="ArticlesUI" style="html=1;align=center;verticalAlign=middle;rotatable=0;whiteSpace=wrap;" vertex="1" parent="lo464l1qegAzPpto4pqf-1">
          <mxGeometry width="100" height="30" relative="1" as="geometry">
            <mxPoint x="30" y="110" as="offset" />
          </mxGeometry>
        </mxCell>
        <mxCell id="lo464l1qegAzPpto4pqf-5" value="" style="edgeStyle=none;endArrow=none;verticalAlign=middle;labelBackgroundColor=none;endSize=12;html=1;align=left;endFill=0;spacingLeft=4;rounded=0;exitX=1;exitY=0.5;exitDx=0;exitDy=0;entryX=0;entryY=0.5;entryDx=0;entryDy=0;" edge="1" parent="lo464l1qegAzPpto4pqf-1" source="lo464l1qegAzPpto4pqf-4">
          <mxGeometry x="0.5638" y="93" relative="1" as="geometry">
            <mxPoint x="370" y="125" as="targetPoint" />
            <mxPoint as="offset" />
          </mxGeometry>
        </mxCell>
        <mxCell id="lo464l1qegAzPpto4pqf-6" value=":ArticleGroup" style="html=1;align=center;verticalAlign=middle;rotatable=0;whiteSpace=wrap;" vertex="1" parent="lo464l1qegAzPpto4pqf-1">
          <mxGeometry x="240" y="230" width="100" height="30" as="geometry" />
        </mxCell>
        <mxCell id="lo464l1qegAzPpto4pqf-7" value=":Articles" style="html=1;align=center;verticalAlign=middle;rotatable=0;whiteSpace=wrap;" vertex="1" parent="lo464l1qegAzPpto4pqf-1">
          <mxGeometry x="370" y="110" width="100" height="30" as="geometry" />
        </mxCell>
        <mxCell id="lo464l1qegAzPpto4pqf-8" value="" style="edgeStyle=none;endArrow=none;verticalAlign=middle;labelBackgroundColor=none;endSize=12;html=1;align=left;endFill=0;spacingLeft=4;rounded=0;exitX=0.5;exitY=0;exitDx=0;exitDy=0;entryX=0.5;entryY=1;entryDx=0;entryDy=0;" edge="1" parent="lo464l1qegAzPpto4pqf-1" source="lo464l1qegAzPpto4pqf-6">
          <mxGeometry x="0.5638" y="93" relative="1" as="geometry">
            <mxPoint x="170" y="135" as="sourcePoint" />
            <mxPoint x="420" y="140" as="targetPoint" />
            <mxPoint as="offset" />
          </mxGeometry>
        </mxCell>
      </root>
    </mxGraphModel>
  </diagram>
</mxfile>
